HIERARCHY
ROOT Hips
{
	OFFSET 0.00000 0.00000 0.00000
	CHANNELS 6 Xposition Yposition Zposition Yrotation Zrotation Xrotation 
	JOINT Lumbar
	{
		OFFSET 0 0 0
		CHANNELS 3 Zrotation Xrotation Yrotation
		JOINT Neck
		{
			OFFSET 0.00 0.2701 0.00
			CHANNELS 3 Zrotation Xrotation Yrotation
			End Site
			{
				OFFSET 0.00 0.1379 0.00
			}
		}
		JOINT RightShoulder
		{
			OFFSET 0.0119 0.2289 0.1181
			CHANNELS 3 Zrotation Xrotation Yrotation
			JOINT RightElbow
			{
				OFFSET 0.00 -0.1475 0.00
				CHANNELS 2 Zrotation Yrotation
				JOINT RightWrist
				{
					OFFSET 0.00 -0.1605 0.00
					CHANNELS 2 Zrotation Xrotation
					End Site
					{
						OFFSET 0.0040 -0.1068 0.0006
					}
				}
			}
		}
		JOINT LeftShoulder
		{
			OFFSET 0.0119 0.2289 -0.1181
			CHANNELS 3 Zrotation Xrotation Yrotation
			JOINT LeftElbow
			{
				OFFSET 0.00 -0.1475 0.00
				CHANNELS 2 Zrotation Yrotation
				JOINT LeftWrist
				{
					OFFSET 0.00 -0.1605 0.00
					CHANNELS 2 Zrotation Xrotation
					End Site
					{
						OFFSET 0.0040 -0.1068 -0.0006
					}
				}
			}
		}
	}
	JOINT RightHip
	{
		OFFSET 0.0316 -0.0424 0.0458
		CHANNELS 3 Zrotation Xrotation Yrotation
		JOINT RightKnee
		{
			OFFSET 0.00 -0.2438 0.00
			CHANNELS 1 Zrotation
			JOINT RightAnkle
			{
				OFFSET 0.00 -0.2449 0.00
				CHANNELS 3 Zrotation Xrotation Yrotation
				End Site
				{
					OFFSET 0.1237 -0.0542 0.0051
				}
			}
		}
	}
	JOINT LeftHip
	{
		OFFSET 0.0316 -0.0424 -0.0458
		CHANNELS 3 Zrotation Xrotation Yrotation
		JOINT LeftKnee
		{
			OFFSET 0.00 -0.2438 0.00
			CHANNELS 1 Zrotation
			JOINT LeftAnkle
			{
				OFFSET 0.00 -0.2449 0.00
				CHANNELS 3 Zrotation Xrotation Yrotation
				End Site
				{
					OFFSET 0.1237 -0.0542 -0.0051
				}
			}
		}
	}
}
MOTION
Frames: 25
Frame Time: 0.02
0.0003 3e-05 0.00027 17.68044 -36.02151 -3.6685 56.98631 1.79407 2.20975 -3.8843 -7.99754 -0.14678 157.65332 -80.08346 -59.64438 10.44096 99.87766 -11.96493 -10.20793 -18.58883 108.18697 -64.16685 5.51102 -65.99289 13.99299 7.17609 50.77142 -0.52888 -4.2729 -18.69634 -8.09422 -5.13364 -3.46579 51.60626 3.6742 10.71093 -24.18993 -8.13008 5.10582 3.42529
0.00044 4e-05 0.00028 17.65859 -36.00353 -3.6783 57.01505 1.76857 2.24059 -3.92425 -7.97623 -0.14664 157.4122 -80.04495 -60.01908 10.36313 99.90075 -11.92467 -10.13994 -18.77581 108.1645 -64.16684 5.50552 -65.92405 13.86113 7.19149 50.74025 -0.54827 -4.48995 -18.69832 -8.07242 -5.11712 -3.45385 51.58064 3.65481 10.54842 -24.18928 -8.15259 5.12139 3.44006
0.00058 5e-05 0.00028 17.63684 -35.98556 -3.68805 57.04378 1.74305 2.27135 -3.96431 -7.95457 -0.1465 157.17121 -80.00669 -60.39321 10.28548 99.92367 -11.8841 -10.07194 -18.96068 108.1416 -64.16532 5.50004 -65.85593 13.7292 7.20678 50.70911 -0.56764 -4.7065 -18.70029 -8.05066 -5.10063 -3.44193 51.55504 3.63544 10.38623 -24.18863 -8.17505 5.13692 3.45479
0.00072 6e-05 0.00028 17.61507 -35.96763 -3.69782 57.07244 1.71762 2.3021 -4.00417 -7.93328 -0.14637 156.9308 -79.96829 -60.76674 10.20788 99.94683 -11.84395 -10.00417 -19.14849 108.11941 -64.16653 5.49455 -65.78726 13.59778 7.22215 50.67803 -0.58697 -4.92291 -18.70226 -8.02893 -5.08415 -3.43003 51.52949 3.6161 10.22418 -24.18798 -8.19749 5.15245 3.46951
0.00086 6e-05 0.00028 17.59319 -35.94968 -3.70764 57.10108 1.69223 2.33293 -4.04383 -7.91242 -0.14622 156.69031 -79.92966 -61.14093 10.13013 99.96979 -11.80408 -9.93638 -19.33442 108.09703 -64.16577 5.48906 -65.71801 13.46632 7.23759 50.64692 -0.60633 -5.13976 -18.70422 -8.00716 -5.06765 -3.4181 51.50392 3.59677 10.06187 -24.18732 -8.21999 5.168 3.48428
0.001 7e-05 0.00029 17.57172 -35.93167 -3.71726 57.12998 1.66645 2.36355 -4.08475 -7.88905 -0.14611 156.44817 -79.89223 -61.51507 10.05267 99.99237 -11.76194 -9.86785 -19.51449 108.07259 -64.1604 5.48359 -65.65247 13.33326 7.25253 50.61572 -0.62572 -5.35567 -18.70621 -7.98543 -5.0512 -3.40622 51.47826 3.57732 9.89994 -24.18668 -8.24235 5.18349 3.49891
0.00115 8e-05 0.00029 17.54945 -35.91383 -3.72727 57.15834 1.6415 2.39456 -4.12304 -7.87091 -0.14594 156.21011 -79.85225 -61.88808 9.97474 100.01681 -11.72492 -9.80121 -19.71815 108.05446 -64.17492 5.47805 -65.57863 13.20432 7.26865 50.58476 -0.645 -5.57323 -18.70815 -7.96364 -5.03466 -3.39425 51.45282 3.55812 9.73743 -24.18601 -8.26496 5.19908 3.5138
0.00129 9e-05 0.00029 17.52793 -35.89579 -3.7369 57.18718 1.61573 2.42518 -4.16387 -7.84767 -0.14581 155.9674 -79.81495 -62.26366 9.89721 100.03748 -11.68226 -9.73224 -19.87816 108.0266 -64.15176 5.47264 -65.5141 13.07023 7.28332 50.55355 -0.66441 -5.78928 -18.71014 -7.94192 -5.0182 -3.38236 51.42716 3.53868 9.57546 -24.18537 -8.28734 5.21458 3.52845
0.00143 0.0001 0.00029 17.50727 -35.87765 -3.74615 57.21672 1.58917 2.45545 -4.20743 -7.81922 -0.14575 155.72233 -79.77961 -62.63657 9.82027 100.0617 -11.63622 -9.6627 -20.07153 108.00225 -64.15901 5.46711 -65.45446 12.93503 7.29763 50.52211 -0.6839 -6.00356 -18.71217 -7.92023 -5.00183 -3.37056 51.40129 3.519 9.41402 -24.18476 -8.30944 5.23 3.5428
0.00157 0.00011 0.0003 17.48149 -35.86053 -3.75786 57.24258 1.5678 2.48814 -4.23413 -7.82383 -0.14534 155.50081 -79.72902 -63.00736 9.74023 100.09003 -11.62018 -9.60326 -20.33364 108.00403 -64.22117 5.46145 -65.34716 12.82178 7.31827 50.49221 -0.7027 -6.22827 -18.71392 -7.89821 -4.9849 -3.35824 51.37681 3.50086 9.24912 -24.18396 -8.33316 5.24599 3.55885
0.00171 0.00012 0.0003 17.4666 -35.84099 -3.76421 57.27594 1.53509 2.51545 -4.2971 -7.75677 -0.14567 155.22329 -79.71315 -63.39373 9.66652 100.094 -11.53417 -9.51817 -20.28434 107.92113 -64.02078 5.45659 -65.35284 12.65234 7.32284 50.45894 -0.7231 -6.43075 -18.71628 -7.87697 -4.96922 -3.34704 51.34929 3.47938 9.09183 -24.18357 -8.35346 5.26071 3.57134
0.00189 0.00012 0.00027 17.48109 -35.81687 -3.75688 57.33225 1.47404 2.53018 -4.45486 -7.50687 -0.14806 154.8523 -79.77392 -63.73195 9.61113 100.1622 -11.3115 -9.39504 -20.80215 107.85815 -64.34053 5.44938 -65.56495 12.41308 7.30459 50.41748 -0.74682 -6.57395 -18.72013 -7.85707 -4.9564 -3.33861 51.31443 3.44918 8.95337 -24.18419 -8.36419 5.27235 3.57388
0.00207 0.00011 0.00024 17.50656 -35.79003 -3.7439 57.39569 1.40114 2.5391 -4.64986 -7.18257 -0.15119 154.42091 -79.87386 -64.10225 9.56134 100.1838 -11.01018 -9.23841 -20.7895 107.67195 -64.19796 5.4436 -65.90632 12.10518 7.26584 50.3726 -0.77244 -6.69469 -18.72463 -7.83806 -4.9449 -3.33134 51.27646 3.41556 8.82334 -24.18527 -8.37147 5.28262 3.57288
0.00224 0.0001 0.00022 17.52743 -35.76293 -3.73291 57.45426 1.33182 2.54924 -4.831 -6.88315 -0.15396 153.96889 -79.96695 -64.51777 9.50909 100.13834 -10.70631 -9.07819 -20.0326 107.3664 -63.41676 5.44044 -66.26052 11.76922 7.22311 50.32838 -0.79778 -6.82439 -18.7289 -7.81923 -4.93318 -3.32377 51.23906 3.38315 8.69021 -24.18618 -8.3805 5.2933 3.57368
0.00245 0.0001 0.00019 17.54691 -35.74172 -3.72462 57.51955 1.26992 2.56538 -4.99954 -6.62075 -0.15679 153.69092 -80.01035 -64.68263 9.45885 100.45633 -10.55623 -9.00447 -23.24558 107.76548 -66.08867 5.42445 -66.3268 11.66914 7.2382 50.28723 -0.8203 -6.95862 -18.7328 -7.7981 -4.91997 -3.31533 51.20468 3.35203 8.55221 -24.18682 -8.38896 5.30496 3.57376
0.00259 9e-05 0.00017 17.57161 -35.70813 -3.70904 57.57275 1.18997 2.56764 -5.2028 -6.26425 -0.15969 153.07225 -80.17096 -65.37502 9.40277 100.01749 -10.07688 -8.73371 -18.30089 106.71208 -61.62053 5.43432 -67.00588 11.07918 7.12584 50.23972 -0.84957 -7.07894 -18.73776 -7.78175 -4.91003 -3.30887 51.16395 3.31757 8.42863 -24.18824 -8.39753 5.31413 3.57439
0.00257 9e-05 0.00021 17.61025 -35.63616 -3.67747 57.58854 1.06149 2.53306 -5.49548 -5.66137 -0.16259 151.20947 -80.60758 -67.53185 9.35549 97.40236 -8.62393 -8.00674 11.11749 101.29788 -36.1514 5.52562 -69.48574 8.99452 6.68437 50.16806 -0.89328 -7.15849 -18.74435 -7.78037 -4.91031 -3.30844 51.10036 3.27313 8.32256 -24.19083 -8.40968 5.31785 3.57845
0.00249 8e-05 0.00026 17.65333 -35.55262 -3.63828 57.59215 0.91568 2.4847 -5.82119 -4.96754 -0.16559 149.05913 -81.16773 -70.21318 9.29789 94.04467 -6.85751 -7.0701 48.3707 94.49745 -3.76871 5.64113 -72.5448 6.44391 6.11158 50.0914 -0.94431 -7.22585 -18.7522 -7.78342 -4.9136 -3.30982 51.03154 3.22562 8.23395 -24.19435 -8.42168 5.31893 3.58303
0.00243 6e-05 0.0003 17.69297 -35.47773 -3.60074 57.60305 0.77871 2.44259 -6.13016 -4.31814 -0.16848 147.25699 -81.69651 -72.64712 9.22689 91.09205 -5.29003 -6.17427 80.63438 88.58075 24.52535 5.73854 -75.25532 4.21707 5.58782 50.022 -0.99455 -7.30451 -18.76023 -7.78308 -4.91447 -3.30979 50.96925 3.18068 8.15134 -24.19801 -8.43211 5.32042 3.58667
0.0024 8e-05 0.00036 17.73911 -35.38894 -3.57055 57.60752 0.63675 2.40031 -6.44819 -3.65197 -0.17143 144.55993 -82.12281 -75.12996 9.22969 87.85552 -3.48318 -5.49772 118.82 81.58757 56.81154 5.8653 -78.35857 1.53535 5.11014 49.93183 -1.03455 -7.35988 -18.76509 -7.78844 -4.91968 -3.31223 50.88971 3.13108 8.01248 -24.19931 -8.44915 5.32506 3.59306
0.00229 3e-05 0.0004 17.7725 -35.32574 -3.52343 57.62146 0.50185 2.35522 -6.75414 -3.00148 -0.17458 143.62734 -82.79048 -77.62296 9.07975 85.03067 -2.09919 -4.32702 146.68706 76.51008 82.44476 5.93748 -80.74454 -0.33432 4.50326 49.88325 -1.0971 -7.4589 -18.77685 -7.78316 -4.91672 -3.31002 50.84439 3.08998 7.99195 -24.20574 -8.45269 5.32271 3.59403
0.00195 -0.00017 0.00041 17.77062 -35.3417 -3.43058 57.67253 0.38533 2.30538 -7.02304 -2.40525 -0.17557 147.9154 -84.10317 -80.11613 8.48025 83.57672 -1.97514 -1.74303 142.71521 77.05499 87.78062 5.8459 -81.31805 0.37819 3.59337 49.95531 -1.22426 -7.70104 -18.80736 -7.7458 -4.88892 -3.29362 50.89951 3.07765 8.31899 -24.22607 -8.41668 5.29989 3.57868
0.00151 -0.00043 0.00041 17.7556 -35.38284 -3.32117 57.73197 0.27751 2.25315 -7.27736 -1.83055 -0.17721 153.93876 -85.65317 -82.5801 7.73297 82.56586 -2.28154 1.31042 128.33269 79.57806 86.2222 5.69984 -81.09852 1.88601 2.55547 50.06861 -1.37309 -7.98407 -18.84477 -7.69787 -4.85306 -3.27263 50.98852 3.0732 8.76004 -24.25155 -8.36753 5.27043 3.55809
0.00112 -0.00066 0.00041 17.7457 -35.40865 -3.21988 57.78235 0.16936 2.20249 -7.53566 -1.25362 -0.1804 158.98403 -87.08795 -84.99449 7.07329 81.30191 -2.38537 4.08539 119.67616 81.19979 87.9739 5.58343 -81.02888 2.87709 1.56034 50.15993 -1.50929 -8.23552 -18.87902 -7.6558 -4.82191 -3.25431 51.05885 3.0621 9.13215 -24.27469 -8.32597 5.24522 3.54073
0.00074 -0.00089 0.00042 17.73912 -35.45017 -3.11566 57.85469 0.04558 2.14991 -7.80749 -0.64107 -0.17606 164.81396 -88.55618 -87.70247 6.32723 80.17829 -2.52155 7.14988 107.17551 82.78083 89.22707 5.44738 -81.83817 4.49179 0.61987 50.26447 -1.65745 -8.54105 -18.91342 -7.60939 -4.78648 -3.23359 51.1424 3.06359 9.57625 -24.29783 -8.27764 5.21482 3.51986
